<svg width="24" height="24" viewBox="0 0 24 24" fill="none" xmlns="http://www.w3.org/2000/svg">
<circle cx="12" cy="12" r="12" fill="#0CA750" fill-opacity="0.1"/>
<path fill-rule="evenodd" clip-rule="evenodd" d="M10.8914 8.29714H7.64857C7.29056 8.29714 7 8.00658 7 7.64857C7 7.29056 7.29056 7 7.64857 7H15.4314C15.7894 7 16.08 7.29056 16.08 7.64857C16.08 8.00658 15.7894 8.29714 15.4314 8.29714H13.4857C13.7691 8.67396 13.9721 9.11499 14.0694 9.59429H15.4314C15.7894 9.59429 16.08 9.88485 16.08 10.2429C16.08 10.6009 15.7894 10.8914 15.4314 10.8914H14.0694C13.7691 12.3715 12.4603 13.4857 10.8914 13.4857H10.5114L14.5928 17.5672C14.8458 17.8201 14.8458 18.2313 14.5928 18.4843C14.3399 18.7372 13.9287 18.7372 13.6757 18.4843L8.48717 13.2957C8.30168 13.1102 8.24591 12.8313 8.34643 12.5887C8.44696 12.3468 8.68369 12.1886 8.94571 12.1886H10.8914C11.7385 12.1886 12.4597 11.647 12.7262 10.8914H7.64857C7.29056 10.8914 7 10.6009 7 10.2429C7 9.88485 7.29056 9.59429 7.64857 9.59429H12.7262C12.4597 8.8387 11.7385 8.29714 10.8914 8.29714V8.29714Z" fill="#0CA750"/>
</svg>
