<svg width="176" height="38" viewBox="0 0 176 38" fill="none" xmlns="http://www.w3.org/2000/svg">
<mask id="path-1-outside-1_70_965" maskUnits="userSpaceOnUse" x="0" y="0.000686646" width="20" height="23" fill="black">
<rect fill="white" y="0.000686646" width="20" height="23"/>
<path d="M14.298 19.3154L12.5932 21.8628C12.5932 21.8628 4.4149 22.5715 1.58007 14.5307C-1.25476 6.48996 6.98131 0.43048 11.578 1.04338L11.5049 3.91623C10.5884 3.88327 9.68388 4.13257 8.91369 4.63042C8.14349 5.12827 7.54478 5.85065 7.19853 6.69986C5.9603 9.69852 7.47937 13.0329 10.9286 13.4161C14.3777 13.7994 17.5936 13.8118 18.8574 14.8972L16.3934 17.0679C15.1662 16.5397 13.8325 16.3058 12.4988 16.3848C9.8176 16.3848 5.62387 16.0015 4.03312 10.2368C4.03312 10.2368 2.182 18.881 14.2988 19.3154"/>
</mask>
<path d="M14.298 19.3154L12.5932 21.8628C12.5932 21.8628 4.4149 22.5715 1.58007 14.5307C-1.25476 6.48996 6.98131 0.43048 11.578 1.04338L11.5049 3.91623C10.5884 3.88327 9.68388 4.13257 8.91369 4.63042C8.14349 5.12827 7.54478 5.85065 7.19853 6.69986C5.9603 9.69852 7.47937 13.0329 10.9286 13.4161C14.3777 13.7994 17.5936 13.8118 18.8574 14.8972L16.3934 17.0679C15.1662 16.5397 13.8325 16.3058 12.4988 16.3848C9.8176 16.3848 5.62387 16.0015 4.03312 10.2368C4.03312 10.2368 2.182 18.881 14.2988 19.3154" fill="#0CA750"/>
<path d="M12.5932 21.8628L12.6069 22.0213L12.6829 22.0147L12.7254 21.9513L12.5932 21.8628ZM11.578 1.04338L11.7371 1.04742L11.7407 0.904568L11.5991 0.885681L11.578 1.04338ZM11.5049 3.91623L11.4992 4.07522L11.6598 4.081L11.6639 3.92028L11.5049 3.91623ZM7.19853 6.69986L7.34557 6.76058L7.34584 6.75993L7.19853 6.69986ZM18.8574 14.8972L18.9626 15.0165L19.0998 14.8956L18.9611 14.7765L18.8574 14.8972ZM16.3934 17.0679L16.3305 17.214L16.423 17.2538L16.4986 17.1873L16.3934 17.0679ZM12.4988 16.3848V16.5442L12.5082 16.5436L12.4988 16.3848ZM4.03312 10.2368L4.18647 10.1945L3.87755 10.2035L4.03312 10.2368ZM14.1658 19.2269L12.461 21.7743L12.7254 21.9513L14.4302 19.4039L14.1658 19.2269ZM12.5932 21.8628C12.5794 21.7043 12.5795 21.7043 12.5795 21.7043C12.5795 21.7043 12.5795 21.7043 12.5794 21.7043C12.5792 21.7043 12.579 21.7044 12.5786 21.7044C12.5778 21.7045 12.5765 21.7046 12.5748 21.7047C12.5713 21.705 12.5658 21.7054 12.5585 21.7059C12.5438 21.7069 12.5215 21.7084 12.4922 21.71C12.4334 21.7131 12.3462 21.7167 12.2337 21.7185C12.0087 21.7221 11.6829 21.7185 11.2826 21.6893C10.4817 21.6308 9.38497 21.4701 8.20159 21.0617C5.83878 20.2462 3.12824 18.4436 1.73011 14.4778L1.43003 14.5836C2.86672 18.6587 5.66274 20.5221 8.09778 21.3625C9.31332 21.782 10.4383 21.9467 11.2594 22.0066C11.6702 22.0366 12.0055 22.0404 12.2388 22.0366C12.3554 22.0348 12.4467 22.031 12.5091 22.0277C12.5403 22.026 12.5644 22.0245 12.5808 22.0233C12.589 22.0227 12.5953 22.0222 12.5997 22.0219C12.6019 22.0217 12.6036 22.0216 12.6048 22.0215C12.6054 22.0214 12.6059 22.0214 12.6062 22.0214C12.6064 22.0214 12.6066 22.0213 12.6067 22.0213C12.6068 22.0213 12.6069 22.0213 12.5932 21.8628ZM1.73011 14.4778C0.336492 10.525 1.66057 7.06029 3.90855 4.65045C5.03338 3.44463 6.3875 2.5059 7.74228 1.90698C9.09887 1.30727 10.4454 1.05285 11.557 1.20107L11.5991 0.885681C10.4123 0.727451 9.00554 1.00064 7.61363 1.61597C6.21991 2.2321 4.83031 3.19587 3.67588 4.43341C1.36536 6.91028 -0.0111803 10.4958 1.43003 14.5836L1.73011 14.4778ZM11.419 1.03933L11.3458 3.91219L11.6639 3.92028L11.7371 1.04742L11.419 1.03933ZM11.5106 3.75725C10.5615 3.72311 9.62488 3.98127 8.82732 4.49681L9.00005 4.76403C9.74287 4.28387 10.6152 4.04343 11.4992 4.07522L11.5106 3.75725ZM8.82732 4.49681C8.02976 5.01235 7.40977 5.76041 7.05121 6.6398L7.34584 6.75993C7.67979 5.9409 8.25723 5.24419 9.00005 4.76403L8.82732 4.49681ZM7.05148 6.63914C6.41576 8.17868 6.48524 9.81136 7.16475 11.1124C7.84575 12.4164 9.13449 13.3769 10.911 13.5742L10.9461 13.258C9.27344 13.0721 8.07806 12.1738 7.44678 10.9651C6.81401 9.75353 6.74306 8.21971 7.34557 6.76058L7.05148 6.63914ZM10.911 13.5742C12.6514 13.7676 14.2963 13.8641 15.6914 14.051C16.3844 14.1439 17.0032 14.2578 17.5247 14.4141C18.0475 14.5708 18.4617 14.767 18.7538 15.0179L18.9611 14.7765C18.6213 14.4847 18.1596 14.2723 17.6161 14.1094C17.0714 13.9461 16.4337 13.8295 15.7336 13.7357C14.3425 13.5492 12.6549 13.4479 10.9461 13.258L10.911 13.5742ZM18.7523 14.7778L16.2883 16.9485L16.4986 17.1873L18.9626 15.0165L18.7523 14.7778ZM16.4563 16.9218C15.2063 16.3838 13.8479 16.1455 12.4894 16.226L12.5082 16.5436C13.8172 16.4661 15.1261 16.6957 16.3305 17.214L16.4563 16.9218ZM12.4988 16.2257C11.163 16.2257 9.47679 16.1292 7.92998 15.3312C6.39115 14.5373 4.97134 13.0388 4.18647 10.1945L3.87976 10.2791C4.68564 13.1996 6.15807 14.7751 7.7841 15.614C9.40216 16.4487 11.1534 16.5439 12.4988 16.5439V16.2257ZM4.03312 10.2368C3.87755 10.2035 3.87752 10.2036 3.87749 10.2038C3.87747 10.2039 3.87742 10.2041 3.87738 10.2043C3.8773 10.2047 3.87718 10.2052 3.87705 10.2059C3.87677 10.2072 3.87639 10.2091 3.87591 10.2114C3.87495 10.2162 3.8736 10.2229 3.87192 10.2317C3.86856 10.2493 3.86388 10.2748 3.85837 10.3078C3.84735 10.3737 3.83298 10.4696 3.81917 10.5911C3.79155 10.8342 3.76609 11.1807 3.77414 11.5973C3.79022 12.4299 3.94019 13.5478 4.47844 14.6814C5.56217 16.964 8.19204 19.2557 14.2931 19.4744L14.3045 19.1564C8.28871 18.9407 5.78576 16.6931 4.76587 14.545C4.25229 13.4633 4.10775 12.3929 4.09226 11.5912C4.08453 11.1907 4.10903 10.8584 4.13531 10.6271C4.14845 10.5114 4.16202 10.4211 4.1722 10.3602C4.17729 10.3298 4.18152 10.3067 4.18443 10.2915C4.18588 10.2839 4.187 10.2783 4.18773 10.2747C4.1881 10.2729 4.18836 10.2716 4.18852 10.2709C4.1886 10.2705 4.18866 10.2702 4.18868 10.2701C4.1887 10.27 4.1887 10.2701 4.1887 10.27C4.18869 10.2701 4.18868 10.2701 4.03312 10.2368Z" fill="#00BC71" mask="url(#path-1-outside-1_70_965)"/>
<path d="M18.1495 23.674L18.1824 23.6232L18.1157 23.5799L18.1825 23.6232L18.1825 23.6231L18.1828 23.6226L18.1841 23.6206L18.1895 23.6124L18.2113 23.5797C18.2307 23.5509 18.2598 23.5082 18.2982 23.4533C18.3751 23.3433 18.4893 23.1842 18.6386 22.988C18.9373 22.5956 19.376 22.0552 19.9355 21.4639C21.0553 20.2805 22.6555 18.8972 24.5827 18.0859C26.5214 17.2698 27.8054 16.8761 28.7812 16.686C29.6985 16.5072 30.3455 16.5079 31.015 16.5086C31.0569 16.5087 31.0988 16.5087 31.1409 16.5087C31.172 16.5087 31.2051 16.5088 31.24 16.5089C32.0058 16.5106 33.6582 16.5143 35.3293 15.7804C37.0145 15.0403 38.7129 13.5528 39.5496 10.5779C39.6879 11.5816 39.6126 12.6047 39.3267 13.5797C39.0061 14.6731 38.4301 15.6745 37.6461 16.5014C36.2944 17.8907 35.2061 18.4749 34.0798 18.7388C33.5146 18.8713 32.9373 18.9237 32.3075 18.9547C32.0596 18.967 31.8023 18.9759 31.5343 18.9852C31.1252 18.9994 30.6914 19.0145 30.229 19.0434C28.6837 19.1401 26.6995 19.6995 24.8181 20.7485C22.9363 21.7978 21.1523 23.3396 20.0135 25.405L19.9831 25.4601L20.0297 25.5023L22.098 27.379L22.1672 27.4418L22.2182 27.3635L22.1515 27.3201L22.2182 27.3635L22.2183 27.3634L22.2187 27.3628L22.2203 27.3602L22.2273 27.3497C22.2335 27.3404 22.2429 27.3264 22.2554 27.3081C22.2805 27.2715 22.3181 27.2174 22.3679 27.1484C22.4676 27.0104 22.6164 26.8124 22.8117 26.5735C23.2026 26.0956 23.7799 25.4542 24.525 24.8011C26.0162 23.4942 28.1741 22.145 30.8524 21.9566C31.0453 21.943 31.2332 21.93 31.4163 21.9173C33.7916 21.753 35.3656 21.6441 36.7231 21.0502C38.1904 20.4083 39.3978 19.2044 41.1036 16.7888C42.8251 14.3509 43.2078 10.5955 41.8667 7.34553C40.5232 4.08983 37.4508 1.34217 32.2685 0.920701L32.1825 0.913707V0.999985V3.7251V3.79533L32.2522 3.80403L32.2522 3.80404L32.2522 3.80404L32.2526 3.80409L32.2544 3.80431L32.2617 3.80531L32.2915 3.80967C32.3179 3.8137 32.357 3.82005 32.4071 3.82928C32.5074 3.84774 32.652 3.8777 32.828 3.92353C33.1801 4.01523 33.6569 4.1702 34.1558 4.42312C35.1536 4.92904 36.2329 5.82282 36.5896 7.38146C36.9495 8.9538 36.7112 10.4237 35.9698 11.4936C35.2297 12.5615 33.9821 13.2403 32.301 13.2215L32.3003 13.2215C28.8882 13.2118 25.5298 14.0719 22.5423 15.7205C19.5549 17.3691 17.0368 19.7519 15.2259 22.6439L15.1714 22.7309L15.2693 22.7619L18.0917 23.6557L18.1495 23.674Z" fill="#0CA750" stroke="#00BC71" stroke-width="0.159091"/>
<mask id="path-4-outside-2_70_965" maskUnits="userSpaceOnUse" x="21.3048" y="22.9873" width="12" height="15" fill="black">
<rect fill="white" x="21.3048" y="22.9873" width="12" height="15"/>
<path d="M32.8374 26.9375V23.9878C32.8374 23.9878 24.4229 23.7582 23.7588 33.2581C23.7588 33.4546 23.6808 33.643 23.5418 33.7819C23.4029 33.9209 23.2144 33.9989 23.0179 33.9989H22.318L22.3048 37.3172C23.2237 37.331 24.1225 37.0478 24.8676 36.5097C25.6126 35.9717 26.1641 35.2076 26.4401 34.331C27.4867 31.1897 26.3121 27.7939 32.8367 26.9382"/>
</mask>
<path d="M32.8374 26.9375V23.9878C32.8374 23.9878 24.4229 23.7582 23.7588 33.2581C23.7588 33.4546 23.6808 33.643 23.5418 33.7819C23.4029 33.9209 23.2144 33.9989 23.0179 33.9989H22.318L22.3048 37.3172C23.2237 37.331 24.1225 37.0478 24.8676 36.5097C25.6126 35.9717 26.1641 35.2076 26.4401 34.331C27.4867 31.1897 26.3121 27.7939 32.8367 26.9382" fill="#0CA750"/>
<path d="M32.8374 23.9878H32.9965V23.833L32.8418 23.8288L32.8374 23.9878ZM23.7588 33.2581L23.5997 33.2469V33.2581H23.7588ZM22.318 33.9989V33.8399H22.1595L22.1589 33.9983L22.318 33.9989ZM22.3048 37.3172L22.1458 37.3166L22.1451 37.4739L22.3025 37.4763L22.3048 37.3172ZM26.4401 34.331L26.2891 34.2807L26.2883 34.2832L26.4401 34.331ZM32.9965 26.9375V23.9878H32.6783V26.9375H32.9965ZM32.8374 23.9878C32.8418 23.8288 32.8417 23.8288 32.8415 23.8288C32.8414 23.8288 32.8412 23.8288 32.841 23.8288C32.8407 23.8288 32.8402 23.8288 32.8395 23.8287C32.8383 23.8287 32.8365 23.8287 32.8342 23.8286C32.8297 23.8285 32.8232 23.8284 32.8147 23.8284C32.7978 23.8282 32.7731 23.8282 32.7411 23.8285C32.6772 23.8291 32.5842 23.8314 32.4662 23.8376C32.23 23.8502 31.8932 23.8788 31.4873 23.9433C30.6763 24.072 29.5864 24.3443 28.4741 24.9192C26.2402 26.0737 23.9362 28.4394 23.6001 33.247L23.9175 33.2692C24.2455 28.5768 26.4809 26.3075 28.6202 25.2018C29.6945 24.6466 30.7498 24.3825 31.5372 24.2575C31.9307 24.195 32.2564 24.1674 32.483 24.1554C32.5963 24.1494 32.6847 24.1473 32.7444 24.1466C32.7743 24.1463 32.7969 24.1464 32.8118 24.1465C32.8193 24.1466 32.8249 24.1467 32.8284 24.1468C32.8302 24.1468 32.8315 24.1468 32.8323 24.1468C32.8327 24.1468 32.8329 24.1469 32.8331 24.1469C32.8331 24.1469 32.8331 24.1469 32.8332 24.1469C32.8332 24.1469 32.8331 24.1469 32.8374 23.9878ZM23.5997 33.2581C23.5997 33.4124 23.5384 33.5603 23.4293 33.6694L23.6543 33.8944C23.8231 33.7257 23.9179 33.4968 23.9179 33.2581H23.5997ZM23.4293 33.6694C23.3202 33.7786 23.1722 33.8399 23.0179 33.8399V34.158C23.2566 34.158 23.4855 34.0632 23.6543 33.8944L23.4293 33.6694ZM23.0179 33.8399H22.318V34.158H23.0179V33.8399ZM22.1589 33.9983L22.1458 37.3166L22.4639 37.3179L22.4771 33.9996L22.1589 33.9983ZM22.3025 37.4763C23.2556 37.4906 24.1879 37.1968 24.9607 36.6387L24.7744 36.3808C24.0572 36.8987 23.1919 37.1714 22.3072 37.1581L22.3025 37.4763ZM24.9607 36.6387C25.7335 36.0806 26.3056 35.288 26.5918 34.3788L26.2883 34.2832C26.0227 35.1271 25.4917 35.8628 24.7744 36.3808L24.9607 36.6387ZM26.591 34.3813C26.8572 33.5823 26.9822 32.7667 27.1201 31.9991C27.2591 31.2256 27.4114 30.4995 27.7273 29.8468C28.0408 29.1992 28.5174 28.6205 29.3129 28.1495C30.1119 27.6764 31.2389 27.3082 32.8574 27.096L32.816 26.7805C31.1722 26.9961 29.9993 27.3733 29.1508 27.8757C28.2987 28.3802 27.7802 29.0073 27.4409 29.7082C27.1041 30.4042 26.946 31.1694 26.807 31.9428C26.6669 32.7222 26.5462 33.5091 26.2891 34.2807L26.591 34.3813Z" fill="#00BC71" mask="url(#path-4-outside-2_70_965)"/>
<mask id="path-6-outside-3_70_965" maskUnits="userSpaceOnUse" x="10.9221" y="22.9873" width="12" height="15" fill="black">
<rect fill="white" x="10.9221" y="22.9873" width="12" height="15"/>
<path d="M11.9221 26.9375V23.9878C11.9221 23.9878 20.3366 23.7582 21.0007 33.2581C21.0007 33.4546 21.0787 33.643 21.2177 33.7819C21.3566 33.9209 21.5451 33.9989 21.7416 33.9989H22.38V37.3187C21.4711 37.3271 20.5839 37.0405 19.8517 36.5018C19.1195 35.963 18.5818 35.2013 18.3194 34.331C17.2728 31.1897 18.4474 27.7939 11.9221 26.9382"/>
</mask>
<path d="M11.9221 26.9375V23.9878C11.9221 23.9878 20.3366 23.7582 21.0007 33.2581C21.0007 33.4546 21.0787 33.643 21.2177 33.7819C21.3566 33.9209 21.5451 33.9989 21.7416 33.9989H22.38V37.3187C21.4711 37.3271 20.5839 37.0405 19.8517 36.5018C19.1195 35.963 18.5818 35.2013 18.3194 34.331C17.2728 31.1897 18.4474 27.7939 11.9221 26.9382" fill="#0CA750"/>
<path d="M11.9221 23.9878L11.9177 23.8288L11.763 23.833V23.9878H11.9221ZM21.0007 33.2581H21.1601L21.1594 33.247L21.0007 33.2581ZM22.38 33.9989H22.5391V33.8399H22.38V33.9989ZM22.38 37.3187L22.3815 37.4778L22.5391 37.4763V37.3187H22.38ZM18.3194 34.331L18.4718 34.285L18.4704 34.2807L18.3194 34.331ZM12.0811 26.9375V23.9878H11.763V26.9375H12.0811ZM11.9221 23.9878C11.9264 24.1469 11.9263 24.1469 11.9263 24.1469C11.9263 24.1469 11.9264 24.1469 11.9264 24.1469C11.9266 24.1469 11.9268 24.1468 11.9272 24.1468C11.928 24.1468 11.9293 24.1468 11.9311 24.1468C11.9346 24.1467 11.9402 24.1466 11.9477 24.1465C11.9626 24.1464 11.9852 24.1463 12.0151 24.1466C12.0747 24.1473 12.1632 24.1494 12.2765 24.1554C12.5031 24.1674 12.8288 24.195 13.2222 24.2575C14.0097 24.3825 15.0649 24.6466 16.1393 25.2018C18.2786 26.3075 20.5139 28.5768 20.842 33.2692L21.1594 33.247C20.8233 28.4394 18.5193 26.0737 16.2854 24.9192C15.1731 24.3443 14.0832 24.072 13.2721 23.9433C12.8663 23.8788 12.5295 23.8502 12.2933 23.8376C12.1752 23.8314 12.0823 23.8291 12.0184 23.8285C11.9864 23.8282 11.9617 23.8282 11.9448 23.8284C11.9363 23.8284 11.9298 23.8285 11.9252 23.8286C11.923 23.8287 11.9212 23.8287 11.92 23.8287C11.9193 23.8288 11.9188 23.8288 11.9184 23.8288C11.9183 23.8288 11.9181 23.8288 11.918 23.8288C11.9178 23.8288 11.9177 23.8288 11.9221 23.9878ZM20.8416 33.2581C20.8416 33.4967 20.9364 33.7257 21.1052 33.8944L21.3302 33.6694C21.2211 33.5603 21.1598 33.4124 21.1598 33.2581H20.8416ZM21.1052 33.8944C21.2739 34.0632 21.5029 34.158 21.7416 34.158V33.8399C21.5873 33.8399 21.4393 33.7786 21.3302 33.6694L21.1052 33.8944ZM21.7416 34.158H22.38V33.8399H21.7416V34.158ZM22.221 33.9989V37.3187H22.5391V33.9989H22.221ZM22.3786 37.1596C21.504 37.1677 20.6504 36.8919 19.946 36.3736L19.7574 36.6299C20.5173 37.189 21.4381 37.4865 22.3815 37.4778L22.3786 37.1596ZM19.946 36.3736C19.2415 35.8553 18.7242 35.1224 18.4717 34.2851L18.1671 34.3769C18.4394 35.2802 18.9975 36.0708 19.7574 36.6299L19.946 36.3736ZM18.4704 34.2807C18.2133 33.5091 18.0926 32.7222 17.9525 31.9428C17.8135 31.1694 17.6554 30.4042 17.3185 29.7082C16.9791 29.0073 16.4606 28.3802 15.6084 27.8757C14.7597 27.3733 13.5867 26.9961 11.9427 26.7805L11.9014 27.096C13.5201 27.3082 14.6472 27.6764 15.4463 28.1495C16.2419 28.6205 16.7186 29.1992 17.0321 29.8468C17.348 30.4995 17.5003 31.2257 17.6393 31.9991C17.7773 32.7667 17.9023 33.5823 18.1685 34.3813L18.4704 34.2807Z" fill="#00BC71" mask="url(#path-6-outside-3_70_965)"/>
<path d="M65.3138 24.9693C65.3138 24.5032 65.2413 24.0889 65.0963 23.7264C64.9617 23.3639 64.7183 23.0325 64.3661 22.7321C64.014 22.4318 63.5168 22.1417 62.8747 21.8621C62.2429 21.5721 61.435 21.2769 60.451 20.9765C59.3738 20.6451 58.3795 20.2774 57.4681 19.8735C56.567 19.4592 55.7798 18.9827 55.1066 18.4441C54.4333 17.8952 53.9103 17.2686 53.5374 16.5642C53.1645 15.8496 52.9781 15.0262 52.9781 14.094C52.9781 13.1722 53.1697 12.3332 53.5529 11.5771C53.9465 10.821 54.5007 10.1685 55.2153 9.61957C55.9403 9.06026 56.7948 8.63043 57.7788 8.33006C58.7627 8.01934 59.8503 7.86398 61.0414 7.86398C62.7193 7.86398 64.1642 8.1747 65.376 8.79615C66.5982 9.4176 67.5355 10.2514 68.188 11.2975C68.8509 12.3436 69.1824 13.4984 69.1824 14.762H65.3138C65.3138 14.0163 65.1533 13.3586 64.8322 12.789C64.5215 12.2089 64.0451 11.7532 63.4029 11.4218C62.7711 11.0903 61.9684 10.9246 60.9948 10.9246C60.073 10.9246 59.3065 11.0644 58.6954 11.3441C58.0843 11.6237 57.6286 12.0018 57.3282 12.4782C57.0279 12.9547 56.8777 13.4933 56.8777 14.094C56.8777 14.5186 56.9761 14.9071 57.1729 15.2592C57.3697 15.601 57.67 15.9221 58.074 16.2225C58.4779 16.5125 58.9854 16.7869 59.5965 17.0459C60.2076 17.3048 60.9275 17.5534 61.7561 17.7916C63.0093 18.1645 64.102 18.5788 65.0342 19.0345C65.9664 19.4799 66.7432 19.9874 67.3646 20.5571C67.9861 21.1267 68.4522 21.7741 68.7629 22.4991C69.0736 23.2137 69.229 24.0268 69.229 24.9383C69.229 25.8911 69.0374 26.7508 68.6541 27.5173C68.2709 28.2734 67.722 28.9207 67.0073 29.4593C66.303 29.9875 65.4537 30.3966 64.4594 30.6867C63.4754 30.9663 62.3775 31.1061 61.1657 31.1061C60.0781 31.1061 59.0061 30.9611 57.9497 30.6711C56.9036 30.3811 55.9507 29.9409 55.091 29.3505C54.2314 28.7498 53.5478 28.0041 53.0402 27.1133C52.5327 26.2122 52.279 25.1609 52.279 23.9595H56.1786C56.1786 24.6949 56.3028 25.3215 56.5514 25.8394C56.8104 26.3572 57.1677 26.7819 57.6234 27.1133C58.0792 27.4344 58.6074 27.6726 59.2081 27.828C59.8192 27.9834 60.4717 28.061 61.1657 28.061C62.0771 28.061 62.8384 27.9316 63.4495 27.6726C64.071 27.4137 64.537 27.0512 64.8478 26.5851C65.1585 26.119 65.3138 25.5804 65.3138 24.9693ZM80.0111 13.9852V16.7196H70.534V13.9852H80.0111ZM73.2684 9.86815H77.0126V26.1501C77.0126 26.668 77.0851 27.0667 77.2301 27.3464C77.3855 27.6157 77.5978 27.7969 77.8671 27.8901C78.1364 27.9834 78.4523 28.03 78.8148 28.03C79.0737 28.03 79.3223 28.0144 79.5605 27.9834C79.7988 27.9523 79.9904 27.9212 80.1354 27.8901L80.1509 30.7488C79.8402 30.842 79.4777 30.9249 79.0634 30.9974C78.6594 31.0699 78.1934 31.1061 77.6651 31.1061C76.8055 31.1061 76.0442 30.956 75.3813 30.6556C74.7184 30.3449 74.2006 29.8425 73.8277 29.1486C73.4548 28.4546 73.2684 27.5328 73.2684 26.3831V9.86815ZM81.8133 22.5768V22.2194C81.8133 21.0076 81.9894 19.8838 82.3415 18.8481C82.6937 17.802 83.2012 16.8957 83.8641 16.1292C84.5373 15.3524 85.3555 14.7517 86.3188 14.327C87.2924 13.892 88.3903 13.6745 89.6125 13.6745C90.845 13.6745 91.9429 13.892 92.9061 14.327C93.8797 14.7517 94.7032 15.3524 95.3764 16.1292C96.0496 16.8957 96.5623 17.802 96.9145 18.8481C97.2666 19.8838 97.4427 21.0076 97.4427 22.2194V22.5768C97.4427 23.7886 97.2666 24.9124 96.9145 25.9481C96.5623 26.9839 96.0496 27.8901 95.3764 28.667C94.7032 29.4334 93.8849 30.0341 92.9217 30.4691C91.9584 30.8938 90.8657 31.1061 89.6435 31.1061C88.411 31.1061 87.3079 30.8938 86.3343 30.4691C85.3711 30.0341 84.5528 29.4334 83.8796 28.667C83.2064 27.8901 82.6937 26.9839 82.3415 25.9481C81.9894 24.9124 81.8133 23.7886 81.8133 22.5768ZM85.5575 22.2194V22.5768C85.5575 23.3329 85.6352 24.0475 85.7906 24.7208C85.9459 25.394 86.1893 25.9844 86.5208 26.4919C86.8522 26.9994 87.2769 27.3982 87.7947 27.6882C88.3126 27.9782 88.9289 28.1232 89.6435 28.1232C90.3375 28.1232 90.9382 27.9782 91.4457 27.6882C91.9636 27.3982 92.3883 26.9994 92.7197 26.4919C93.0511 25.9844 93.2945 25.394 93.4499 24.7208C93.6156 24.0475 93.6985 23.3329 93.6985 22.5768V22.2194C93.6985 21.4737 93.6156 20.7694 93.4499 20.1065C93.2945 19.4333 93.046 18.8377 92.7042 18.3198C92.3727 17.802 91.9481 17.398 91.4302 17.108C90.9227 16.8076 90.3168 16.6575 89.6125 16.6575C88.9082 16.6575 88.2971 16.8076 87.7792 17.108C87.2717 17.398 86.8522 17.802 86.5208 18.3198C86.1893 18.8377 85.9459 19.4333 85.7906 20.1065C85.6352 20.7694 85.5575 21.4737 85.5575 22.2194ZM103.098 13.9852L106.298 19.5627L109.561 13.9852H113.678L108.582 22.235L113.88 30.7954H109.763L106.345 24.9849L102.927 30.7954H98.7944L104.077 22.235L98.9963 13.9852H103.098ZM120.514 8.1747V30.7954H116.614V8.1747H120.514ZM134.108 8.1747L124.942 19.0656L119.722 24.5965L119.038 20.728L122.767 16.1292L129.354 8.1747H134.108ZM129.913 30.7954L122.472 20.0754L125.159 17.4187L134.543 30.7954H129.913ZM145.822 27.4241V19.4074C145.822 18.8066 145.714 18.2888 145.496 17.8538C145.279 17.4187 144.947 17.0821 144.502 16.8439C144.067 16.6057 143.518 16.4866 142.855 16.4866C142.244 16.4866 141.716 16.5901 141.27 16.7973C140.825 17.0044 140.478 17.2841 140.229 17.6362C139.981 17.9884 139.857 18.3872 139.857 18.8325H136.128C136.128 18.1697 136.288 17.5275 136.609 16.906C136.931 16.2846 137.397 15.7305 138.008 15.2437C138.619 14.7569 139.349 14.3736 140.198 14.094C141.048 13.8143 142.001 13.6745 143.057 13.6745C144.321 13.6745 145.439 13.8868 146.413 14.3115C147.397 14.7362 148.168 15.3783 148.728 16.238C149.297 17.0873 149.582 18.1541 149.582 19.4384V26.9114C149.582 27.6778 149.634 28.3666 149.738 28.9777C149.852 29.5784 150.012 30.1015 150.219 30.5468V30.7954H146.382C146.206 30.3915 146.066 29.8788 145.962 29.2573C145.869 28.6255 145.822 28.0144 145.822 27.4241ZM146.366 20.5726L146.397 22.8875H143.71C143.016 22.8875 142.404 22.9548 141.876 23.0895C141.348 23.2137 140.908 23.4002 140.556 23.6488C140.204 23.8973 139.939 24.1977 139.763 24.5499C139.587 24.902 139.499 25.3008 139.499 25.7461C139.499 26.1915 139.603 26.6006 139.81 26.9735C140.017 27.336 140.317 27.6208 140.711 27.828C141.115 28.0351 141.602 28.1387 142.171 28.1387C142.938 28.1387 143.606 27.9834 144.176 27.6726C144.756 27.3516 145.211 26.9631 145.543 26.5074C145.874 26.0413 146.05 25.6011 146.071 25.1868L147.283 26.8492C147.159 27.2739 146.946 27.7296 146.646 28.2164C146.345 28.7032 145.952 29.1693 145.465 29.6147C144.989 30.0497 144.414 30.407 143.741 30.6867C143.078 30.9663 142.311 31.1061 141.441 31.1061C140.343 31.1061 139.365 30.8886 138.505 30.4536C137.645 30.0082 136.972 29.4127 136.485 28.667C135.998 27.9109 135.755 27.0564 135.755 26.1035C135.755 25.2127 135.921 24.4256 136.252 23.742C136.594 23.048 137.091 22.468 137.744 22.0019C138.406 21.5358 139.214 21.1837 140.167 20.9455C141.12 20.6969 142.208 20.5726 143.43 20.5726H146.366ZM157.257 17.1857V30.7954H153.513V13.9852H157.086L157.257 17.1857ZM162.4 13.8765L162.369 17.3566C162.141 17.3152 161.892 17.2841 161.623 17.2634C161.364 17.2427 161.105 17.2323 160.846 17.2323C160.204 17.2323 159.639 17.3255 159.153 17.512C158.666 17.688 158.257 17.947 157.925 18.2888C157.604 18.6202 157.355 19.0241 157.179 19.5006C157.003 19.977 156.9 20.5104 156.869 21.1008L156.014 21.163C156.014 20.1065 156.118 19.1277 156.325 18.2266C156.532 17.3255 156.843 16.5332 157.257 15.8496C157.682 15.166 158.21 14.6326 158.842 14.2494C159.484 13.8661 160.225 13.6745 161.063 13.6745C161.291 13.6745 161.535 13.6952 161.794 13.7367C162.063 13.7781 162.265 13.8247 162.4 13.8765ZM173.228 13.9852V16.7196H163.751V13.9852H173.228ZM166.486 9.86815H170.23V26.1501C170.23 26.668 170.302 27.0667 170.447 27.3464C170.603 27.6157 170.815 27.7969 171.084 27.8901C171.354 27.9834 171.67 28.03 172.032 28.03C172.291 28.03 172.54 28.0144 172.778 27.9834C173.016 27.9523 173.208 27.9212 173.353 27.8901L173.368 30.7488C173.057 30.842 172.695 30.9249 172.281 30.9974C171.877 31.0699 171.411 31.1061 170.882 31.1061C170.023 31.1061 169.261 30.956 168.599 30.6556C167.936 30.3449 167.418 29.8425 167.045 29.1486C166.672 28.4546 166.486 27.5328 166.486 26.3831V9.86815Z" fill="#343434"/>
</svg>
