<svg width="12" height="14" viewBox="0 0 12 14" fill="none" xmlns="http://www.w3.org/2000/svg">
<path fill-rule="evenodd" clip-rule="evenodd" d="M5.23468 1.8417H1.48646C1.07266 1.8417 0.736816 1.50586 0.736816 1.09205C0.736816 0.678248 1.07266 0.342407 1.48646 0.342407H10.4822C10.896 0.342407 11.2318 0.678248 11.2318 1.09205C11.2318 1.50586 10.896 1.8417 10.4822 1.8417H8.23326C8.56086 2.27724 8.7955 2.787 8.90794 3.34099H10.4822C10.896 3.34099 11.2318 3.67683 11.2318 4.09063C11.2318 4.50443 10.896 4.84028 10.4822 4.84028H8.90794C8.56086 6.55096 7.04808 7.83885 5.23468 7.83885H4.79539L9.51291 12.5564C9.80527 12.8487 9.80527 13.324 9.51291 13.6164C9.22055 13.9087 8.74527 13.9087 8.45291 13.6164L2.45575 7.61921C2.24135 7.40481 2.17688 7.08246 2.29308 6.8021C2.40927 6.52248 2.68289 6.33956 2.98575 6.33956H5.23468C6.21372 6.33956 7.04733 5.71361 7.35543 4.84028H1.48646C1.07266 4.84028 0.736816 4.50443 0.736816 4.09063C0.736816 3.67683 1.07266 3.34099 1.48646 3.34099H7.35543C7.04733 2.46765 6.21372 1.8417 5.23468 1.8417Z" fill="#0CA750"/>
</svg>
