<svg width="68" height="15" viewBox="0 0 68 15" fill="none" xmlns="http://www.w3.org/2000/svg">
<path d="M7.74621 2.20805H9.16933V9.50892C9.16933 10.3193 8.98897 10.9938 8.62825 11.5324C8.26753 12.071 7.78821 12.4762 7.19031 12.748C6.59734 13.0148 5.9525 13.1482 5.25576 13.1482C4.52444 13.1482 3.8623 13.0148 3.26933 12.748C2.68131 12.4762 2.21435 12.071 1.86845 11.5324C1.5275 10.9938 1.35702 10.3193 1.35702 9.50892V2.20805H2.77273V9.50892C2.77273 10.0722 2.87649 10.5367 3.08403 10.9024C3.29157 11.2681 3.58064 11.5398 3.95124 11.7177C4.32679 11.8956 4.76163 11.9845 5.25576 11.9845C5.75484 11.9845 6.18968 11.8956 6.56028 11.7177C6.93583 11.5398 7.22737 11.2681 7.43491 10.9024C7.64244 10.5367 7.74621 10.0722 7.74621 9.50892V2.20805ZM15.3955 8.76772H12.5122V7.60403H15.3955C15.9538 7.60403 16.406 7.51508 16.7519 7.33719C17.0978 7.1593 17.3498 6.91223 17.5079 6.59599C17.671 6.27974 17.7525 5.91902 17.7525 5.51383C17.7525 5.14322 17.671 4.79486 17.5079 4.46873C17.3498 4.1426 17.0978 3.8807 16.7519 3.68305C16.406 3.48045 15.9538 3.37916 15.3955 3.37916H12.8457V13H11.4152V2.20805H15.3955C16.2108 2.20805 16.9001 2.34888 17.4634 2.63054C18.0267 2.9122 18.4542 3.30256 18.7457 3.80164C19.0372 4.29578 19.183 4.86157 19.183 5.499C19.183 6.19079 19.0372 6.78129 18.7457 7.27048C18.4542 7.75968 18.0267 8.13275 17.4634 8.3897C16.9001 8.64171 16.2108 8.76772 15.3955 8.76772ZM22.5258 2.20805V13H21.0953V2.20805H22.5258Z" fill="#050708"/>
<path fill-rule="evenodd" clip-rule="evenodd" d="M29.3042 12.431H29.5951L29.3227 13.5426C29.2812 13.7061 29.2904 13.8331 29.3458 13.9147C29.4012 13.9964 29.5026 14.0372 29.6549 14.0372C29.8025 14.0372 29.9271 13.9964 30.0241 13.9147C30.1209 13.8329 30.1857 13.7059 30.2272 13.5426L30.4994 12.431H30.7947L30.5179 13.5699C30.4578 13.8149 30.3518 14.001 30.1949 14.1235C30.0426 14.246 29.8395 14.3096 29.5904 14.3096C29.3412 14.3096 29.1704 14.2506 29.0781 14.128C28.9858 14.0055 28.9673 13.8195 29.0274 13.5745L29.3042 12.4311V12.431ZM64.3272 14.2595L64.7701 12.431H65.7806L65.7206 12.6851H65.0054L64.8948 13.1433H65.61L65.5452 13.402H64.8301L64.687 13.9916H65.4023L65.3378 14.2594H64.3272V14.2595ZM64.2995 12.8757C64.2348 12.8032 64.1564 12.7487 64.0734 12.7168C63.9902 12.6806 63.898 12.6624 63.7918 12.6624C63.5934 12.6624 63.4181 12.7259 63.2612 12.853C63.1044 12.9801 63.0028 13.1481 62.9521 13.352C62.9058 13.5473 62.9243 13.7106 63.0168 13.8421C63.1044 13.9691 63.2427 14.0327 63.4273 14.0327C63.5334 14.0327 63.6396 14.0146 63.7456 13.9737C63.8518 13.9375 63.958 13.8784 64.0687 13.8013L63.9856 14.137C63.8933 14.1959 63.7965 14.2369 63.6948 14.2642C63.5933 14.2913 63.4917 14.305 63.3811 14.305C63.2427 14.305 63.118 14.2822 63.0119 14.2367C62.9057 14.1914 62.8182 14.1233 62.7488 14.0327C62.6797 13.9465 62.6382 13.8421 62.6197 13.7243C62.6014 13.6063 62.6059 13.4793 62.6429 13.3431C62.6752 13.2071 62.7305 13.0843 62.8044 12.9664C62.8782 12.8484 62.9751 12.7441 63.0859 12.6579C63.1965 12.5672 63.3165 12.4993 63.4458 12.4538C63.5749 12.4085 63.704 12.3859 63.838 12.3859C63.9441 12.3859 64.0409 12.3994 64.1334 12.4311C64.221 12.463 64.304 12.5082 64.3778 12.5718L64.2995 12.8757ZM61.4293 13.5382H61.9321L61.8491 13.1206C61.8445 13.0935 61.8398 13.0616 61.8398 13.0299C61.8351 12.9937 61.8351 12.9573 61.8351 12.9165C61.8166 12.9573 61.7983 12.9935 61.7751 13.0299C61.7566 13.0661 61.7383 13.098 61.7198 13.1252L61.4291 13.5382H61.4293ZM62.0706 14.2595L61.9783 13.7878H61.2585L60.9354 14.2595H60.6263L61.9644 12.3586L62.3796 14.2595H62.0706ZM59.6343 14.2595L60.0773 12.431H61.0878L61.0278 12.6851H60.3125L60.2019 13.1388H60.9169L60.8523 13.3975H60.1371L59.9295 14.2549H59.6341V14.2595H59.6343ZM58.7621 13.2069H58.8174C58.9743 13.2069 59.0805 13.1887 59.1405 13.1524C59.2004 13.116 59.2421 13.0525 59.2651 12.9572C59.288 12.8573 59.2789 12.7847 59.2327 12.7439C59.1868 12.7031 59.0896 12.6803 58.942 12.6803H58.8865L58.762 13.2068L58.7621 13.2069ZM58.6883 13.4383L58.4898 14.2549H58.2129L58.656 12.4265H59.0667C59.1868 12.4265 59.2789 12.4356 59.3389 12.4493C59.4033 12.463 59.4542 12.4902 59.4911 12.5264C59.5373 12.5718 59.5649 12.6262 59.5787 12.6988C59.5926 12.767 59.5879 12.8441 59.5694 12.9302C59.5326 13.0755 59.4724 13.1935 59.3803 13.275C59.288 13.3567 59.1725 13.4066 59.0341 13.4248L59.4541 14.2548H59.1217L58.7203 13.4382H58.688L58.6883 13.4383ZM56.8656 14.2595L57.3087 12.431H58.3238L58.264 12.6851H57.5487L57.438 13.1433H58.1532L58.0888 13.402H57.3735L57.2306 13.9916H57.9457L57.881 14.2594H56.8658L56.8656 14.2595ZM56.5474 12.6806L56.1644 14.2549H55.8692L56.2521 12.6806H55.7722L55.8322 12.4265H57.0873L57.0275 12.6806H56.5475H56.5474ZM53.5435 14.2595L54.0049 12.3586L54.8817 13.4747C54.9048 13.5064 54.9277 13.5383 54.9508 13.5745C54.9738 13.6107 54.997 13.6517 55.0246 13.6969L55.3339 12.431H55.6061L55.1446 14.3276L54.2494 13.1887C54.2263 13.157 54.2032 13.1252 54.1803 13.0934C54.1572 13.0571 54.1388 13.0253 54.1248 12.9844L53.8158 14.2548H53.5436V14.2594L53.5435 14.2595ZM52.8236 14.2595L53.2666 12.431H53.5618L53.1188 14.2595H52.8236ZM50.6502 13.8921L50.9131 13.7831C50.9177 13.8648 50.9407 13.9283 50.9916 13.9691C51.0424 14.0099 51.1115 14.0327 51.2038 14.0327C51.2914 14.0327 51.3654 14.0099 51.4299 13.9602C51.4945 13.9102 51.5362 13.8468 51.5545 13.7651C51.5822 13.6562 51.5177 13.5608 51.3608 13.4793C51.3378 13.4656 51.324 13.4565 51.3099 13.452C51.1346 13.3522 51.0239 13.2661 50.9777 13.1844C50.9316 13.1028 50.9222 13.0074 50.9501 12.8941C50.9869 12.7444 51.0654 12.6264 51.1899 12.5311C51.3146 12.4404 51.453 12.3905 51.6192 12.3905C51.753 12.3905 51.859 12.4177 51.9375 12.4675C52.016 12.5176 52.0575 12.5946 52.0713 12.69L51.8131 12.808C51.7899 12.749 51.7621 12.7082 51.7253 12.6809C51.6885 12.6538 51.6423 12.6401 51.5868 12.6401C51.5083 12.6401 51.4392 12.6627 51.3839 12.7036C51.3284 12.7444 51.2916 12.7989 51.2731 12.8715C51.2455 12.9804 51.324 13.0846 51.5037 13.1799C51.5177 13.189 51.5268 13.1937 51.5362 13.198C51.693 13.2796 51.7991 13.3614 51.8452 13.4431C51.8914 13.5246 51.9006 13.62 51.8731 13.7425C51.8314 13.9149 51.7438 14.0509 51.6098 14.1554C51.4762 14.2551 51.3191 14.3098 51.1346 14.3098C50.9824 14.3098 50.8624 14.2732 50.7793 14.2007C50.687 14.1281 50.6455 14.0236 50.6502 13.8922V13.8921ZM50.341 12.6806L49.9581 14.2549H49.6628L50.0458 12.6806H49.566L49.6257 12.4265H50.8809L50.8208 12.6806H50.341ZM47.3371 14.2595L47.7985 12.3586L48.6753 13.4747C48.6984 13.5064 48.7216 13.5383 48.7446 13.5745C48.7675 13.6107 48.7907 13.6517 48.8184 13.6969L49.1276 12.431H49.3998L48.9384 14.3276L48.0432 13.1887C48.02 13.157 47.9972 13.1252 47.974 13.0934C47.9509 13.0571 47.9324 13.0253 47.9186 12.9844L47.6095 14.2548H47.3373V14.2594L47.3371 14.2595ZM45.9897 14.2595L46.4327 12.431H47.4432L47.3832 12.6851H46.668L46.5573 13.1433H47.2724L47.2079 13.402H46.4927L46.3496 13.9916H47.065L47.0002 14.2594H45.9897V14.2595ZM45.5006 13.3567C45.5006 13.3431 45.5052 13.3021 45.5144 13.2386C45.5191 13.1843 45.5237 13.1434 45.5284 13.1071C45.5099 13.1481 45.4914 13.1887 45.4684 13.234C45.4453 13.275 45.4176 13.3203 45.3853 13.3611L44.6747 14.3366L44.444 13.3431C44.4348 13.3023 44.4255 13.2614 44.4208 13.2251C44.4163 13.1889 44.4116 13.1481 44.4116 13.1117C44.4024 13.1481 44.3886 13.1887 44.3748 13.234C44.3608 13.275 44.3425 13.3203 44.3193 13.3658L43.9041 14.2642H43.6319L44.5224 12.3586L44.7762 13.5109C44.7808 13.5291 44.7855 13.5608 44.7902 13.6016C44.7947 13.6426 44.804 13.697 44.8132 13.7605C44.8455 13.7061 44.887 13.6426 44.9425 13.5608C44.9563 13.5383 44.9701 13.5246 44.9748 13.5109L45.7777 12.3586L45.75 14.2642H45.4778L45.501 13.3567H45.5006ZM42.6906 14.2595L42.8937 13.4248L42.5245 12.4356H42.8335L43.0642 13.0573C43.0689 13.0753 43.0734 13.0935 43.0826 13.1206C43.0919 13.1481 43.0966 13.1752 43.1057 13.2023C43.1242 13.1752 43.1427 13.1479 43.1612 13.1206C43.1796 13.0935 43.1981 13.0707 43.2165 13.0481L43.7564 12.4356H44.0517L43.1889 13.4201L42.9858 14.2548H42.6904V14.2594L42.6906 14.2595ZM41.3201 13.5382H41.823L41.7399 13.1206C41.7352 13.0935 41.7307 13.0616 41.7307 13.0299C41.726 12.9937 41.726 12.9573 41.726 12.9165C41.7075 12.9573 41.689 12.9935 41.6659 13.0299C41.6475 13.0661 41.6291 13.098 41.6105 13.1252L41.3198 13.5382H41.3201ZM41.9568 14.2595L41.8645 13.7878H41.1446L40.8217 14.2595H40.5125L41.8507 12.3586L42.2659 14.2595H41.9568ZM40.1065 13.1933H40.1803C40.3419 13.1933 40.4572 13.1752 40.5217 13.1388C40.5863 13.1026 40.6278 13.0391 40.651 12.9482C40.6739 12.853 40.6601 12.7804 40.614 12.7442C40.5633 12.7034 40.4617 12.6852 40.3096 12.6852H40.2358L40.1065 13.1935V13.1933ZM40.028 13.4383L39.8296 14.2595H39.5527L39.9957 12.431H40.4432C40.5771 12.431 40.6694 12.4401 40.7294 12.4536C40.7894 12.4672 40.8356 12.49 40.8724 12.5262C40.9185 12.567 40.9508 12.6261 40.9647 12.6986C40.9785 12.7713 40.974 12.8484 40.9555 12.9345C40.9324 13.0208 40.9002 13.1024 40.8494 13.175C40.7986 13.2476 40.7386 13.3066 40.6741 13.3474C40.6187 13.3792 40.5587 13.4063 40.4942 13.42C40.4296 13.4335 40.3281 13.4428 40.1988 13.4428H40.0281V13.4382L40.028 13.4383ZM37.2732 13.9873H37.5224C37.6562 13.9873 37.7623 13.9782 37.8363 13.9602C37.9101 13.9421 37.9746 13.9102 38.0346 13.8694C38.1177 13.8104 38.1869 13.7378 38.2423 13.6471C38.2977 13.5608 38.3393 13.4565 38.3668 13.3386C38.3944 13.2206 38.4037 13.1208 38.3899 13.0348C38.3761 12.9484 38.3438 12.8713 38.2883 12.8123C38.2468 12.767 38.196 12.7398 38.1269 12.7216C38.0577 12.7034 37.9516 12.6945 37.7993 12.6945H37.5871L37.2732 13.9874V13.9873ZM36.9133 14.2595L37.3565 12.431H37.7532C38.0116 12.431 38.1917 12.4446 38.2883 12.4718C38.3853 12.4991 38.4682 12.5399 38.5329 12.6034C38.616 12.6851 38.6715 12.7895 38.6945 12.9119C38.7175 13.039 38.7083 13.1841 38.6715 13.343C38.6298 13.5063 38.5699 13.6468 38.4869 13.7737C38.4038 13.9009 38.2977 14.0007 38.1732 14.0823C38.0809 14.146 37.9793 14.1868 37.8685 14.2139C37.7625 14.2412 37.6009 14.2548 37.3886 14.2548H36.9133V14.2594V14.2595ZM35.5613 14.2595L36.0043 12.431H37.0149L36.9548 12.6851H36.2395L36.1287 13.1433H36.8441L36.7795 13.402H36.0642L35.9211 13.9916H36.6364L36.5719 14.2594H35.5613V14.2595ZM34.846 14.2595L35.289 12.431H35.5842L35.1412 14.2595H34.8458H34.846ZM33.5078 14.2595L33.9508 12.431H34.9613L34.9013 12.6851H34.1861L34.0754 13.1388H34.7905L34.726 13.3975H34.0106L33.803 14.2549H33.5076V14.2595H33.5078ZM32.7925 14.2595L33.2355 12.431H33.5307L33.0877 14.2595H32.7923H32.7925ZM30.7531 14.2595L31.2144 12.3586L32.0911 13.4747C32.1141 13.5064 32.1372 13.5383 32.1604 13.5745C32.1834 13.6107 32.2064 13.6517 32.2342 13.6969L32.5433 12.431H32.8155L32.3542 14.3276L31.459 13.1887C31.436 13.157 31.4129 13.1252 31.3897 13.0934C31.3667 13.0571 31.3482 13.0253 31.3344 12.9844L31.0252 14.2548H30.7531V14.2594V14.2595Z" fill="#3A3734"/>
<path fill-rule="evenodd" clip-rule="evenodd" d="M58.9553 10.8385H56.9297L59.7444 0.843323H61.7701L58.9553 10.8385ZM42.1222 10.2123C42.0114 10.6071 41.6423 10.8838 41.227 10.8838H30.7848C30.4987 10.8838 30.2865 10.7884 30.148 10.598C30.0097 10.4072 29.9774 10.1714 30.0604 9.89017L32.6075 0.870594H34.6333L32.3584 8.9283H40.4612L42.736 0.870594H44.7618L42.1222 10.2123ZM57.9032 1.1564C57.7649 0.965811 57.5478 0.870594 57.2526 0.870594H46.1229L45.5738 2.83055H55.6977L55.1071 4.92225H47.009V4.91763H44.9834L43.3037 10.8839H45.3294L46.4552 6.88221H55.5594C55.8455 6.88221 56.1131 6.78684 56.3623 6.5964C56.6114 6.40582 56.7777 6.16993 56.856 5.88859L57.9819 1.88701C58.0695 1.58765 58.0418 1.34699 57.9032 1.1564Z" fill="#716D6A"/>
<path fill-rule="evenodd" clip-rule="evenodd" d="M65.2682 0.86145L67.8292 5.87036L62.4443 10.8793L63.0848 8.60715L66.0297 5.87036L64.6287 3.13017L65.2682 0.86145Z" fill="#0CA750"/>
<path fill-rule="evenodd" clip-rule="evenodd" d="M63.4684 0.86145L66.0293 5.87036L60.6396 10.8793L63.4684 0.86145Z" fill="#E97208"/>
</svg>
